<mxfile host="app.diagrams.net" modified="2023-01-19T18:31:21.865Z" agent="5.0 (Windows NT 10.0; Win64; x64) AppleWebKit/537.36 (KHTML, like Gecko) Chrome/109.0.0.0 Safari/537.36" etag="IWZs_-RXDwqtI0pvwHNQ" version="20.8.5" type="github">
  <diagram id="6a731a19-8d31-9384-78a2-239565b7b9f0" name="Page-1">
    <mxGraphModel dx="1526" dy="1657" grid="1" gridSize="10" guides="1" tooltips="1" connect="1" arrows="1" fold="1" page="1" pageScale="1" pageWidth="1169" pageHeight="827" background="none" math="0" shadow="0">
      <root>
        <mxCell id="0" />
        <mxCell id="1" parent="0" />
        <mxCell id="2" value="start" style="shape=mxgraph.flowchart.terminator;strokeWidth=2;gradientColor=none;gradientDirection=north;fontStyle=0;html=1;" parent="1" vertex="1">
          <mxGeometry x="610" y="-210" width="120" height="30" as="geometry" />
        </mxCell>
        <mxCell id="3" value="Input Name and Password" style="shape=mxgraph.flowchart.data;strokeWidth=2;gradientColor=none;gradientDirection=north;fontStyle=0;html=1;" parent="1" vertex="1">
          <mxGeometry x="581" y="80" width="178" height="80" as="geometry" />
        </mxCell>
        <mxCell id="7" style="fontStyle=1;strokeColor=#003366;strokeWidth=1;html=1;" parent="1" source="2" edge="1">
          <mxGeometry relative="1" as="geometry">
            <mxPoint x="670" y="-130" as="targetPoint" />
          </mxGeometry>
        </mxCell>
        <mxCell id="8" style="fontStyle=1;strokeColor=#003366;strokeWidth=1;html=1;entryX=0.5;entryY=0;entryDx=0;entryDy=0;" parent="1" source="3" target="Z4Uu8_ogNLf2Eh6c77ge-70" edge="1">
          <mxGeometry relative="1" as="geometry">
            <mxPoint x="671" y="190" as="targetPoint" />
          </mxGeometry>
        </mxCell>
        <mxCell id="11" value="yes" style="text;fontStyle=0;html=1;strokeColor=none;gradientColor=none;fillColor=none;strokeWidth=2;" parent="1" vertex="1">
          <mxGeometry x="687.12" y="10" width="40" height="26" as="geometry" />
        </mxCell>
        <mxCell id="14" value="No" style="text;fontStyle=0;html=1;strokeColor=none;gradientColor=none;fillColor=none;strokeWidth=2;align=center;" parent="1" vertex="1">
          <mxGeometry x="572.87" y="-66" width="40" height="26" as="geometry" />
        </mxCell>
        <mxCell id="40" value="end" style="shape=mxgraph.flowchart.terminator;strokeWidth=2;gradientColor=none;gradientDirection=north;fontStyle=0;html=1;" parent="1" vertex="1">
          <mxGeometry x="610" y="1840" width="120" height="30" as="geometry" />
        </mxCell>
        <mxCell id="53" value="yes" style="text;fontStyle=0;html=1;strokeColor=none;gradientColor=none;fillColor=none;strokeWidth=2;align=center;" parent="1" vertex="1">
          <mxGeometry x="960" y="1460" width="40" height="26" as="geometry" />
        </mxCell>
        <mxCell id="55" value="no" style="text;fontStyle=0;html=1;strokeColor=none;gradientColor=none;fillColor=none;strokeWidth=2;" parent="1" vertex="1">
          <mxGeometry x="978" y="1320" width="40" height="26" as="geometry" />
        </mxCell>
        <mxCell id="Z4Uu8_ogNLf2Eh6c77ge-61" style="edgeStyle=orthogonalEdgeStyle;rounded=0;orthogonalLoop=1;jettySize=auto;html=1;" edge="1" parent="1" source="Z4Uu8_ogNLf2Eh6c77ge-55" target="Z4Uu8_ogNLf2Eh6c77ge-60">
          <mxGeometry relative="1" as="geometry" />
        </mxCell>
        <mxCell id="Z4Uu8_ogNLf2Eh6c77ge-55" value="Student Interface Entrance" style="rounded=0;whiteSpace=wrap;html=1;" vertex="1" parent="1">
          <mxGeometry x="546" y="-130" width="250" height="20" as="geometry" />
        </mxCell>
        <mxCell id="Z4Uu8_ogNLf2Eh6c77ge-57" value="" style="endArrow=classic;html=1;rounded=0;" edge="1" parent="1">
          <mxGeometry width="50" height="50" relative="1" as="geometry">
            <mxPoint x="670" y="20" as="sourcePoint" />
            <mxPoint x="670" y="80" as="targetPoint" />
            <Array as="points">
              <mxPoint x="670" y="60" />
            </Array>
          </mxGeometry>
        </mxCell>
        <mxCell id="Z4Uu8_ogNLf2Eh6c77ge-73" style="edgeStyle=orthogonalEdgeStyle;rounded=0;orthogonalLoop=1;jettySize=auto;html=1;" edge="1" parent="1" source="Z4Uu8_ogNLf2Eh6c77ge-58">
          <mxGeometry relative="1" as="geometry">
            <mxPoint x="672.8850000000002" y="450" as="targetPoint" />
          </mxGeometry>
        </mxCell>
        <mxCell id="Z4Uu8_ogNLf2Eh6c77ge-58" value="Correct Name and Password" style="rhombus;whiteSpace=wrap;html=1;" vertex="1" parent="1">
          <mxGeometry x="615.76" y="300" width="114.25" height="100" as="geometry" />
        </mxCell>
        <mxCell id="Z4Uu8_ogNLf2Eh6c77ge-65" style="edgeStyle=orthogonalEdgeStyle;rounded=0;orthogonalLoop=1;jettySize=auto;html=1;entryX=1;entryY=0.5;entryDx=0;entryDy=0;" edge="1" parent="1" source="Z4Uu8_ogNLf2Eh6c77ge-60" target="Z4Uu8_ogNLf2Eh6c77ge-64">
          <mxGeometry relative="1" as="geometry" />
        </mxCell>
        <mxCell id="Z4Uu8_ogNLf2Eh6c77ge-60" value="Are You Register&amp;nbsp;" style="rhombus;whiteSpace=wrap;html=1;" vertex="1" parent="1">
          <mxGeometry x="612.87" y="-80" width="114.25" height="100" as="geometry" />
        </mxCell>
        <mxCell id="Z4Uu8_ogNLf2Eh6c77ge-67" style="edgeStyle=orthogonalEdgeStyle;rounded=0;orthogonalLoop=1;jettySize=auto;html=1;entryX=0.095;entryY=0.5;entryDx=0;entryDy=0;entryPerimeter=0;" edge="1" parent="1" source="Z4Uu8_ogNLf2Eh6c77ge-62" target="3">
          <mxGeometry relative="1" as="geometry">
            <mxPoint x="500" y="130" as="targetPoint" />
            <Array as="points">
              <mxPoint x="395" y="120" />
            </Array>
          </mxGeometry>
        </mxCell>
        <mxCell id="Z4Uu8_ogNLf2Eh6c77ge-62" value="Administration will register your Name and Password" style="rounded=0;whiteSpace=wrap;html=1;" vertex="1" parent="1">
          <mxGeometry x="270" y="50" width="250" height="40" as="geometry" />
        </mxCell>
        <mxCell id="Z4Uu8_ogNLf2Eh6c77ge-66" style="edgeStyle=orthogonalEdgeStyle;rounded=0;orthogonalLoop=1;jettySize=auto;html=1;entryX=0.5;entryY=0;entryDx=0;entryDy=0;" edge="1" parent="1" source="Z4Uu8_ogNLf2Eh6c77ge-64" target="Z4Uu8_ogNLf2Eh6c77ge-62">
          <mxGeometry relative="1" as="geometry" />
        </mxCell>
        <mxCell id="Z4Uu8_ogNLf2Eh6c77ge-64" value="Contact Adminstraion" style="rounded=0;whiteSpace=wrap;html=1;" vertex="1" parent="1">
          <mxGeometry x="270" y="-50" width="250" height="40" as="geometry" />
        </mxCell>
        <mxCell id="Z4Uu8_ogNLf2Eh6c77ge-72" style="edgeStyle=orthogonalEdgeStyle;rounded=0;orthogonalLoop=1;jettySize=auto;html=1;entryX=0.5;entryY=0;entryDx=0;entryDy=0;" edge="1" parent="1" source="Z4Uu8_ogNLf2Eh6c77ge-70" target="Z4Uu8_ogNLf2Eh6c77ge-58">
          <mxGeometry relative="1" as="geometry" />
        </mxCell>
        <mxCell id="Z4Uu8_ogNLf2Eh6c77ge-82" style="edgeStyle=orthogonalEdgeStyle;rounded=0;orthogonalLoop=1;jettySize=auto;html=1;entryX=1;entryY=0.5;entryDx=0;entryDy=0;" edge="1" parent="1" source="Z4Uu8_ogNLf2Eh6c77ge-70" target="Z4Uu8_ogNLf2Eh6c77ge-77">
          <mxGeometry relative="1" as="geometry" />
        </mxCell>
        <mxCell id="Z4Uu8_ogNLf2Eh6c77ge-83" style="edgeStyle=orthogonalEdgeStyle;rounded=0;orthogonalLoop=1;jettySize=auto;html=1;entryX=0;entryY=0.5;entryDx=0;entryDy=0;" edge="1" parent="1" source="Z4Uu8_ogNLf2Eh6c77ge-70" target="Z4Uu8_ogNLf2Eh6c77ge-78">
          <mxGeometry relative="1" as="geometry" />
        </mxCell>
        <mxCell id="Z4Uu8_ogNLf2Eh6c77ge-70" value="Check Login Name and&amp;nbsp; Password" style="rounded=0;whiteSpace=wrap;html=1;" vertex="1" parent="1">
          <mxGeometry x="572.88" y="210" width="200" height="40" as="geometry" />
        </mxCell>
        <mxCell id="Z4Uu8_ogNLf2Eh6c77ge-77" value="Change Password" style="rhombus;whiteSpace=wrap;html=1;" vertex="1" parent="1">
          <mxGeometry x="360" y="180" width="114.25" height="100" as="geometry" />
        </mxCell>
        <mxCell id="Z4Uu8_ogNLf2Eh6c77ge-80" style="edgeStyle=orthogonalEdgeStyle;rounded=0;orthogonalLoop=1;jettySize=auto;html=1;entryX=0;entryY=0.5;entryDx=0;entryDy=0;" edge="1" parent="1" source="Z4Uu8_ogNLf2Eh6c77ge-78" target="Z4Uu8_ogNLf2Eh6c77ge-79">
          <mxGeometry relative="1" as="geometry" />
        </mxCell>
        <mxCell id="Z4Uu8_ogNLf2Eh6c77ge-78" value="Forget Your Password" style="rhombus;whiteSpace=wrap;html=1;" vertex="1" parent="1">
          <mxGeometry x="870" y="180" width="114.25" height="100" as="geometry" />
        </mxCell>
        <mxCell id="Z4Uu8_ogNLf2Eh6c77ge-79" value="Correct Name and Password" style="rhombus;whiteSpace=wrap;html=1;" vertex="1" parent="1">
          <mxGeometry x="1040" y="180" width="114.25" height="100" as="geometry" />
        </mxCell>
        <mxCell id="Z4Uu8_ogNLf2Eh6c77ge-84" value="" style="endArrow=classic;html=1;rounded=0;" edge="1" parent="1">
          <mxGeometry width="50" height="50" relative="1" as="geometry">
            <mxPoint x="927" y="280" as="sourcePoint" />
            <mxPoint x="760" y="260" as="targetPoint" />
            <Array as="points">
              <mxPoint x="927" y="320" />
              <mxPoint x="760" y="320" />
            </Array>
          </mxGeometry>
        </mxCell>
        <mxCell id="Z4Uu8_ogNLf2Eh6c77ge-85" value="No" style="text;fontStyle=0;html=1;strokeColor=none;gradientColor=none;fillColor=none;strokeWidth=2;align=center;" vertex="1" parent="1">
          <mxGeometry x="820" y="280" width="40" height="26" as="geometry" />
        </mxCell>
      </root>
    </mxGraphModel>
  </diagram>
</mxfile>
